<?xml version="1.0" encoding="utf-8"?>
<!-- Generator: Adobe Illustrator 14.0.0, SVG Export Plug-In . SVG Version: 6.00 Build 43363)  -->
<!DOCTYPE svg PUBLIC "-//W3C//DTD SVG 1.1//EN" "http://www.w3.org/Graphics/SVG/1.1/DTD/svg11.dtd">
<svg version="1.1" id="Layer_1" xmlns="http://www.w3.org/2000/svg" xmlns:xlink="http://www.w3.org/1999/xlink" x="0px" y="0px"
	 width="135px" height="135px" viewBox="0 0 135 135" enable-background="new 0 0 135 135" xml:space="preserve">
<radialGradient id="SVGID_1_" cx="68.0234" cy="67.542" r="65.3672" gradientUnits="userSpaceOnUse">
	<stop  offset="0.5276" style="stop-color:#AB4974"/>
	<stop  offset="1" style="stop-color:#9F2063;stop-opacity:0"/>
</radialGradient>
<path fill="url(#SVGID_1_)" d="M133.392,67.537c0,36.105-29.266,65.371-65.369,65.371c-36.1,0-65.366-29.266-65.366-65.371
	c0-36.095,29.266-65.361,65.366-65.361C104.126,2.176,133.392,31.442,133.392,67.537z"/>
<linearGradient id="SVGID_2_" gradientUnits="userSpaceOnUse" x1="63.917" y1="10.917" x2="63.917" y2="124.1226" gradientTransform="matrix(-1 0 0 1 131.3975 0)">
	<stop  offset="0" style="stop-color:#FFFFFF"/>
	<stop  offset="0.3938" style="stop-color:#FFFEFC"/>
	<stop  offset="0.5356" style="stop-color:#FFFBF3"/>
	<stop  offset="0.6367" style="stop-color:#FFF6E8"/>
	<stop  offset="0.7185" style="stop-color:#FFF1DA"/>
	<stop  offset="0.7886" style="stop-color:#FFEBC7"/>
	<stop  offset="0.8506" style="stop-color:#FFE3B1"/>
	<stop  offset="0.9067" style="stop-color:#FFDB96"/>
	<stop  offset="0.9565" style="stop-color:#FFD17A"/>
	<stop  offset="1" style="stop-color:#FFC758"/>
</linearGradient>
<path fill="url(#SVGID_2_)" d="M10.89,67.521c1.724,52.864,51.25,56.603,56.603,56.603c31.263,0,56.605-25.342,56.605-56.603
	c0-31.262-25.343-56.604-56.605-56.604C36.231,10.917,9.871,36.275,10.89,67.521z"/>
<path opacity="0.14" fill="none" d="M67.415,13.257c29.865,0,54.165,24.289,54.183,54.15c-20.736,4.764-41.632,2.694-62.146-7
	c-13.96-6.598-28.039-11.687-42.091-13.708C25.52,27.085,44.882,13.257,67.415,13.257z"/>
<linearGradient id="SVGID_3_" gradientUnits="userSpaceOnUse" x1="67.3013" y1="10.7725" x2="67.3013" y2="124.6255">
	<stop  offset="0" style="stop-color:#FFFFFF"/>
	<stop  offset="0.0513" style="stop-color:#F0E4E7"/>
	<stop  offset="0.2024" style="stop-color:#D5ACBA"/>
	<stop  offset="0.3526" style="stop-color:#C2839A"/>
	<stop  offset="0.4982" style="stop-color:#B56484"/>
	<stop  offset="0.6384" style="stop-color:#AB4A75"/>
	<stop  offset="0.7718" style="stop-color:#A4356B"/>
	<stop  offset="0.8954" style="stop-color:#A02665"/>
	<stop  offset="1" style="stop-color:#9F2063"/>
</linearGradient>
<circle fill="url(#SVGID_3_)" cx="67.302" cy="67.699" r="56.925"/>
<path opacity="0.33" fill="#FFFFFF" d="M67.237,14.417c29.865,0,54.164,24.29,54.181,54.142
	c-20.736,4.762-41.631,2.693-62.144-6.992c-13.96-6.597-28.039-11.686-42.09-13.708C25.341,28.245,44.704,14.417,67.237,14.417z"/>
</svg>
